<svg xmlns="http://www.w3.org/2000/svg" width="40px" height="40px" viewBox="0 0 40 40" version="1.1">
    <path style="stroke:none;fill-rule:nonzero;fill:rgb(0%,0%,0%);fill-opacity:1;" d="M 30 18.035156 C 29.078125 18.035156 28.332031 18.78125 28.332031 19.699219 L 28.332031 31.667969 C 28.332031 32.585938 27.585938 33.332031 26.667969 33.332031 L 8.332031 33.332031 C 7.414062 33.332031 6.667969 32.585938 6.667969 31.667969 L 6.667969 13.332031 C 6.667969 12.414062 7.414062 11.667969 8.332031 11.667969 L 20.300781 11.667969 C 21.21875 11.667969 21.964844 10.921875 21.964844 10 C 21.964844 9.078125 21.21875 8.332031 20.300781 8.332031 L 8.332031 8.332031 C 5.570312 8.332031 3.332031 10.570312 3.332031 13.332031 L 3.332031 31.667969 C 3.332031 34.429688 5.570312 36.667969 8.332031 36.667969 L 26.667969 36.667969 C 29.429688 36.667969 31.667969 34.429688 31.667969 31.667969 L 31.667969 19.699219 C 31.667969 18.78125 30.921875 18.035156 30 18.035156 Z M 36.535156 4.367188 C 36.363281 3.960938 36.039062 3.636719 35.632812 3.464844 C 35.433594 3.382812 35.21875 3.335938 35 3.332031 L 25 3.332031 C 24.078125 3.332031 23.332031 4.078125 23.332031 5 C 23.332031 5.921875 24.078125 6.667969 25 6.667969 L 30.984375 6.667969 L 13.816406 23.816406 C 13.5 24.128906 13.324219 24.554688 13.324219 25 C 13.324219 25.445312 13.5 25.871094 13.816406 26.183594 C 14.128906 26.5 14.554688 26.675781 15 26.675781 C 15.445312 26.675781 15.871094 26.5 16.183594 26.183594 L 33.332031 9.015625 L 33.332031 15 C 33.332031 15.921875 34.078125 16.667969 35 16.667969 C 35.921875 16.667969 36.667969 15.921875 36.667969 15 L 36.667969 5 C 36.664062 4.78125 36.617188 4.566406 36.535156 4.367188 Z M 36.535156 4.367188 "/>
</svg>